<mxfile host="65bd71144e">
    <diagram id="jzBEVRv4DWt0B-_P84AI" name="Block">
        <mxGraphModel dx="723" dy="285" grid="1" gridSize="10" guides="1" tooltips="1" connect="1" arrows="1" fold="1" page="1" pageScale="1" pageWidth="850" pageHeight="1100" math="0" shadow="0">
            <root>
                <mxCell id="0"/>
                <mxCell id="1" parent="0"/>
                <mxCell id="6" value="Table" style="html=1;" parent="1" vertex="1">
                    <mxGeometry x="250" y="150" width="110" height="50" as="geometry"/>
                </mxCell>
                <mxCell id="7" value="BaseTable" style="html=1;" parent="1" vertex="1">
                    <mxGeometry x="90" y="150" width="110" height="50" as="geometry"/>
                </mxCell>
                <mxCell id="8" value="" style="endArrow=block;endSize=16;endFill=0;html=1;entryX=0;entryY=0.5;entryDx=0;entryDy=0;exitX=0.5;exitY=0;exitDx=0;exitDy=0;" parent="1" source="7" target="13" edge="1">
                    <mxGeometry width="160" relative="1" as="geometry">
                        <mxPoint x="210" y="270" as="sourcePoint"/>
                        <mxPoint x="370" y="270" as="targetPoint"/>
                    </mxGeometry>
                </mxCell>
                <mxCell id="9" value="RowType" style="html=1;" parent="1" vertex="1">
                    <mxGeometry x="410" y="150" width="110" height="50" as="geometry"/>
                </mxCell>
                <mxCell id="10" value="" style="endArrow=open;endFill=1;endSize=12;html=1;entryX=0;entryY=0.5;entryDx=0;entryDy=0;exitX=1;exitY=0.5;exitDx=0;exitDy=0;" parent="1" source="6" target="9" edge="1">
                    <mxGeometry width="160" relative="1" as="geometry">
                        <mxPoint x="10" y="320" as="sourcePoint"/>
                        <mxPoint x="170" y="320" as="targetPoint"/>
                    </mxGeometry>
                </mxCell>
                <mxCell id="11" value="Field" style="html=1;" parent="1" vertex="1">
                    <mxGeometry x="410" y="220" width="110" height="50" as="geometry"/>
                </mxCell>
                <mxCell id="12" value="" style="endArrow=open;endFill=1;endSize=12;html=1;entryX=0;entryY=0.5;entryDx=0;entryDy=0;exitX=1;exitY=0.75;exitDx=0;exitDy=0;" parent="1" source="6" target="11" edge="1">
                    <mxGeometry width="160" relative="1" as="geometry">
                        <mxPoint x="530" y="210" as="sourcePoint"/>
                        <mxPoint x="420" y="185" as="targetPoint"/>
                    </mxGeometry>
                </mxCell>
                <mxCell id="13" value="Site" style="html=1;" parent="1" vertex="1">
                    <mxGeometry x="250" y="30" width="110" height="50" as="geometry"/>
                </mxCell>
                <mxCell id="14" value="" style="endArrow=block;endSize=16;endFill=0;html=1;entryX=0.5;entryY=1;entryDx=0;entryDy=0;exitX=0.5;exitY=0;exitDx=0;exitDy=0;" parent="1" source="6" target="13" edge="1">
                    <mxGeometry width="160" relative="1" as="geometry">
                        <mxPoint x="100" y="210" as="sourcePoint"/>
                        <mxPoint x="260" y="210" as="targetPoint"/>
                    </mxGeometry>
                </mxCell>
                <mxCell id="15" value="" style="endArrow=open;endFill=1;endSize=12;html=1;entryX=0.75;entryY=1;entryDx=0;entryDy=0;exitX=0;exitY=0.25;exitDx=0;exitDy=0;" parent="1" source="9" target="13" edge="1">
                    <mxGeometry width="160" relative="1" as="geometry">
                        <mxPoint x="370" y="185" as="sourcePoint"/>
                        <mxPoint x="420" y="185" as="targetPoint"/>
                    </mxGeometry>
                </mxCell>
                <mxCell id="LWo221dTGYN8n8E5gyOf-15" value="DataType" style="html=1;" parent="1" vertex="1">
                    <mxGeometry x="410" y="30" width="110" height="50" as="geometry"/>
                </mxCell>
                <mxCell id="LWo221dTGYN8n8E5gyOf-19" value="" style="endArrow=open;endFill=1;endSize=12;html=1;entryX=0;entryY=0.5;entryDx=0;entryDy=0;exitX=1;exitY=0.5;exitDx=0;exitDy=0;" parent="1" source="13" target="LWo221dTGYN8n8E5gyOf-15" edge="1">
                    <mxGeometry width="160" relative="1" as="geometry">
                        <mxPoint x="420" y="172.5" as="sourcePoint"/>
                        <mxPoint x="342.5" y="90" as="targetPoint"/>
                    </mxGeometry>
                </mxCell>
                <mxCell id="LWo221dTGYN8n8E5gyOf-20" value="" style="endArrow=open;endFill=1;endSize=12;html=1;entryX=1;entryY=0.5;entryDx=0;entryDy=0;exitX=1;exitY=0.5;exitDx=0;exitDy=0;" parent="1" source="11" target="LWo221dTGYN8n8E5gyOf-15" edge="1">
                    <mxGeometry width="160" relative="1" as="geometry">
                        <mxPoint x="370" y="65" as="sourcePoint"/>
                        <mxPoint x="420" y="65" as="targetPoint"/>
                        <Array as="points">
                            <mxPoint x="550" y="150"/>
                        </Array>
                    </mxGeometry>
                </mxCell>
                <mxCell id="lKu0ukoPVPj8RNmvoOTe-15" value="" style="endArrow=open;endFill=1;endSize=12;html=1;entryX=0;entryY=0.5;entryDx=0;entryDy=0;exitX=1;exitY=0.5;exitDx=0;exitDy=0;" parent="1" source="7" target="6" edge="1">
                    <mxGeometry width="160" relative="1" as="geometry">
                        <mxPoint x="420" y="172.5" as="sourcePoint"/>
                        <mxPoint x="342.5" y="90" as="targetPoint"/>
                    </mxGeometry>
                </mxCell>
            </root>
        </mxGraphModel>
    </diagram>
    <diagram id="0Y03tnmwjRKsyfHbfhrT" name="Class">
        <mxGraphModel dx="723" dy="285" grid="1" gridSize="10" guides="1" tooltips="1" connect="1" arrows="1" fold="1" page="1" pageScale="1" pageWidth="850" pageHeight="1100" math="0" shadow="0">
            <root>
                <mxCell id="lCS4FcYz-aoGhG3HwIAY-0"/>
                <mxCell id="lCS4FcYz-aoGhG3HwIAY-1" parent="lCS4FcYz-aoGhG3HwIAY-0"/>
                <mxCell id="rJmXPRad6XpBiDdcHO_Y-3" style="edgeStyle=none;html=1;exitX=0.5;exitY=0;exitDx=0;exitDy=0;entryX=0.5;entryY=1;entryDx=0;entryDy=0;" edge="1" parent="lCS4FcYz-aoGhG3HwIAY-1" source="Qm01f0pZvDMRlsNxDoSL-3" target="FNnhUNr_KiXnueuTBLAe-2">
                    <mxGeometry relative="1" as="geometry"/>
                </mxCell>
                <mxCell id="Qm01f0pZvDMRlsNxDoSL-3" value="&lt;span style=&quot;font-weight: 700&quot;&gt;RowType =&amp;nbsp;&lt;/span&gt;std::map&amp;lt;std::string, DataType&amp;gt;" style="html=1;" parent="lCS4FcYz-aoGhG3HwIAY-1" vertex="1">
                    <mxGeometry x="70" y="160" width="250" height="30" as="geometry"/>
                </mxCell>
                <mxCell id="rJmXPRad6XpBiDdcHO_Y-12" style="edgeStyle=orthogonalEdgeStyle;curved=1;html=1;exitX=0.5;exitY=0;exitDx=0;exitDy=0;entryX=0.25;entryY=1;entryDx=0;entryDy=0;endArrow=none;endFill=0;" edge="1" parent="lCS4FcYz-aoGhG3HwIAY-1" source="ejOyckR1Vss1DpSD9ATy-0" target="Qm01f0pZvDMRlsNxDoSL-3">
                    <mxGeometry relative="1" as="geometry"/>
                </mxCell>
                <mxCell id="ejOyckR1Vss1DpSD9ATy-0" value="&lt;b&gt;Field =&amp;nbsp;&lt;/b&gt;std::pair&amp;lt;std::string, DataType&amp;gt;" style="html=1;" parent="lCS4FcYz-aoGhG3HwIAY-1" vertex="1">
                    <mxGeometry x="10" y="250" width="230" height="30" as="geometry"/>
                </mxCell>
                <mxCell id="rJmXPRad6XpBiDdcHO_Y-2" style="edgeStyle=orthogonalEdgeStyle;html=1;curved=1;" edge="1" parent="lCS4FcYz-aoGhG3HwIAY-1" source="oEdN6mtQf5lMDYdg9PmO-0" target="Qm01f0pZvDMRlsNxDoSL-3">
                    <mxGeometry relative="1" as="geometry">
                        <mxPoint x="380" y="350" as="sourcePoint"/>
                        <mxPoint x="320" y="240" as="targetPoint"/>
                    </mxGeometry>
                </mxCell>
                <mxCell id="oEdN6mtQf5lMDYdg9PmO-0" value="&lt;&lt;interface&gt;&gt;&#10;Table" style="swimlane;fontStyle=3;align=center;verticalAlign=top;childLayout=stackLayout;horizontal=1;startSize=40;horizontalStack=0;resizeParent=1;resizeParentMax=0;resizeLast=0;collapsible=1;marginBottom=0;" parent="lCS4FcYz-aoGhG3HwIAY-1" vertex="1">
                    <mxGeometry x="165" y="290" width="260" height="170" as="geometry">
                        <mxRectangle x="90" y="300" width="110" height="40" as="alternateBounds"/>
                    </mxGeometry>
                </mxCell>
                <mxCell id="FNnhUNr_KiXnueuTBLAe-34" value="" style="line;strokeWidth=1;fillColor=none;align=left;verticalAlign=middle;spacingTop=-1;spacingLeft=3;spacingRight=3;rotatable=0;labelPosition=right;points=[];portConstraint=eastwest;" parent="oEdN6mtQf5lMDYdg9PmO-0" vertex="1">
                    <mxGeometry y="40" width="260" height="10" as="geometry"/>
                </mxCell>
                <mxCell id="FNnhUNr_KiXnueuTBLAe-35" value="+ insert(RowType): void" style="text;strokeColor=none;fillColor=none;align=left;verticalAlign=top;spacingLeft=4;spacingRight=4;overflow=hidden;rotatable=0;points=[[0,0.5],[1,0.5]];portConstraint=eastwest;fontStyle=2" parent="oEdN6mtQf5lMDYdg9PmO-0" vertex="1">
                    <mxGeometry y="50" width="260" height="20" as="geometry"/>
                </mxCell>
                <mxCell id="rJmXPRad6XpBiDdcHO_Y-7" value="+ delete(filter(row: RowType): bool): std::size_t" style="text;strokeColor=none;fillColor=none;align=left;verticalAlign=top;spacingLeft=4;spacingRight=4;overflow=hidden;rotatable=0;points=[[0,0.5],[1,0.5]];portConstraint=eastwest;fontStyle=2" vertex="1" parent="oEdN6mtQf5lMDYdg9PmO-0">
                    <mxGeometry y="70" width="260" height="20" as="geometry"/>
                </mxCell>
                <mxCell id="rJmXPRad6XpBiDdcHO_Y-8" value="+ cardinality(): std::size_t" style="text;strokeColor=none;fillColor=none;align=left;verticalAlign=top;spacingLeft=4;spacingRight=4;overflow=hidden;rotatable=0;points=[[0,0.5],[1,0.5]];portConstraint=eastwest;fontStyle=2" vertex="1" parent="oEdN6mtQf5lMDYdg9PmO-0">
                    <mxGeometry y="90" width="260" height="20" as="geometry"/>
                </mxCell>
                <mxCell id="rJmXPRad6XpBiDdcHO_Y-9" value="+ degree(): std::size_t" style="text;strokeColor=none;fillColor=none;align=left;verticalAlign=top;spacingLeft=4;spacingRight=4;overflow=hidden;rotatable=0;points=[[0,0.5],[1,0.5]];portConstraint=eastwest;fontStyle=2" vertex="1" parent="oEdN6mtQf5lMDYdg9PmO-0">
                    <mxGeometry y="110" width="260" height="20" as="geometry"/>
                </mxCell>
                <mxCell id="rJmXPRad6XpBiDdcHO_Y-10" value="+ begin(): T::iterator" style="text;strokeColor=none;fillColor=none;align=left;verticalAlign=top;spacingLeft=4;spacingRight=4;overflow=hidden;rotatable=0;points=[[0,0.5],[1,0.5]];portConstraint=eastwest;fontStyle=2" vertex="1" parent="oEdN6mtQf5lMDYdg9PmO-0">
                    <mxGeometry y="130" width="260" height="20" as="geometry"/>
                </mxCell>
                <mxCell id="rJmXPRad6XpBiDdcHO_Y-11" value="+ end(): T::iterator" style="text;strokeColor=none;fillColor=none;align=left;verticalAlign=top;spacingLeft=4;spacingRight=4;overflow=hidden;rotatable=0;points=[[0,0.5],[1,0.5]];portConstraint=eastwest;fontStyle=2" vertex="1" parent="oEdN6mtQf5lMDYdg9PmO-0">
                    <mxGeometry y="150" width="260" height="20" as="geometry"/>
                </mxCell>
                <mxCell id="rJmXPRad6XpBiDdcHO_Y-6" style="edgeStyle=orthogonalEdgeStyle;html=1;exitX=0.5;exitY=0;exitDx=0;exitDy=0;entryX=1;entryY=0.5;entryDx=0;entryDy=0;curved=1;" edge="1" parent="lCS4FcYz-aoGhG3HwIAY-1" source="FNnhUNr_KiXnueuTBLAe-0" target="FNnhUNr_KiXnueuTBLAe-31">
                    <mxGeometry relative="1" as="geometry">
                        <mxPoint x="480" y="220" as="targetPoint"/>
                    </mxGeometry>
                </mxCell>
                <mxCell id="FNnhUNr_KiXnueuTBLAe-0" value="&lt;span style=&quot;font-weight: 700&quot;&gt;RowTypeDescriptor =&amp;nbsp;&lt;/span&gt;std::vector&amp;lt;FieldDescriptor&amp;gt;" style="html=1;" parent="lCS4FcYz-aoGhG3HwIAY-1" vertex="1">
                    <mxGeometry x="550" y="210" width="290" height="30" as="geometry"/>
                </mxCell>
                <mxCell id="FNnhUNr_KiXnueuTBLAe-2" value="&lt;span style=&quot;font-weight: 700&quot;&gt;DataType &lt;/span&gt;= std::any&lt;span style=&quot;color: rgba(0 , 0 , 0 , 0) ; font-family: monospace ; font-size: 0px&quot;&gt;%3CmxGraphModel%3E%3Croot%3E%3CmxCell%20id%3D%220%22%2F%3E%3CmxCell%20id%3D%221%22%20parent%3D%220%22%2F%3E%3CmxCell%20id%3D%222%22%20value%3D%22%26lt%3Bspan%20style%3D%26quot%3Bfont-weight%3A%20700%26quot%3B%26gt%3BRowType%20%3D%26amp%3Bnbsp%3B%26lt%3B%2Fspan%26gt%3Bstd%3A%3Amap%26amp%3Blt%3Bstd%3A%3Astring%2C%20Site%26amp%3Bgt%3B%22%20style%3D%22html%3D1%3B%22%20vertex%3D%221%22%20parent%3D%221%22%3E%3CmxGeometry%20x%3D%2290%22%20y%3D%22190%22%20width%3D%22230%22%20height%3D%2232%22%20as%3D%22geometry%22%2F%3E%3C%2FmxCell%3E%3C%2Froot%3E%3C%2FmxGraphModel%3E&lt;/span&gt;&lt;span style=&quot;color: rgba(0 , 0 , 0 , 0) ; font-family: monospace ; font-size: 0px&quot;&gt;%3CmxGraphModel%3E%3Croot%3E%3CmxCell%20id%3D%220%22%2F%3E%3CmxCell%20id%3D%221%22%20parent%3D%220%22%2F%3E%3CmxCell%20id%3D%222%22%20value%3D%22%26lt%3Bspan%20style%3D%26quot%3Bfont-weight%3A%20700%26quot%3B%26gt%3BRowType%20%3D%26amp%3Bnbsp%3B%26lt%3B%2Fspan%26gt%3Bstd%3A%3Amap%26amp%3Blt%3Bstd%3A%3Astring%2C%20Site%26amp%3Bgt%3B%22%20style%3D%22html%3D1%3B%22%20vertex%3D%221%22%20parent%3D%221%22%3E%3CmxGeometry%20x%3D%2290%22%20y%3D%22190%22%20width%3D%22230%22%20height%3D%2232%22%20as%3D%22geometry%22%2F%3E%3C%2FmxCell%3E%3C%2Froot%3E%3C%2FmxGraphModel%3E&lt;/span&gt;" style="html=1;" parent="lCS4FcYz-aoGhG3HwIAY-1" vertex="1">
                    <mxGeometry x="75" y="68" width="130" height="30" as="geometry"/>
                </mxCell>
                <mxCell id="FNnhUNr_KiXnueuTBLAe-16" value="&lt;span style=&quot;font-weight: 700&quot;&gt;DataTypeDescriptor =&amp;nbsp;&lt;/span&gt;std::variant&amp;lt;&lt;br&gt;IntegerDescriptor&amp;gt;" style="html=1;" parent="lCS4FcYz-aoGhG3HwIAY-1" vertex="1">
                    <mxGeometry x="280" y="38" width="230" height="30" as="geometry"/>
                </mxCell>
                <mxCell id="FNnhUNr_KiXnueuTBLAe-19" value="DataTypeDescriptorBase" style="swimlane;fontStyle=0;childLayout=stackLayout;horizontal=1;startSize=26;fillColor=none;horizontalStack=0;resizeParent=1;resizeParentMax=0;resizeLast=0;collapsible=1;marginBottom=0;" parent="lCS4FcYz-aoGhG3HwIAY-1" vertex="1">
                    <mxGeometry x="860" y="27" width="140" height="52" as="geometry"/>
                </mxCell>
                <mxCell id="FNnhUNr_KiXnueuTBLAe-20" value="+ id(): std::string" style="text;strokeColor=none;fillColor=none;align=left;verticalAlign=top;spacingLeft=4;spacingRight=4;overflow=hidden;rotatable=0;points=[[0,0.5],[1,0.5]];portConstraint=eastwest;" parent="FNnhUNr_KiXnueuTBLAe-19" vertex="1">
                    <mxGeometry y="26" width="140" height="26" as="geometry"/>
                </mxCell>
                <mxCell id="FNnhUNr_KiXnueuTBLAe-23" value="IntegerDescriptor" style="swimlane;fontStyle=0;childLayout=stackLayout;horizontal=1;startSize=26;fillColor=none;horizontalStack=0;resizeParent=1;resizeParentMax=0;resizeLast=0;collapsible=1;marginBottom=0;" parent="lCS4FcYz-aoGhG3HwIAY-1" vertex="1">
                    <mxGeometry x="560" y="27" width="210" height="52" as="geometry"/>
                </mxCell>
                <mxCell id="FNnhUNr_KiXnueuTBLAe-24" value="+ id(): std::string" style="text;strokeColor=none;fillColor=none;align=left;verticalAlign=top;spacingLeft=4;spacingRight=4;overflow=hidden;rotatable=0;points=[[0,0.5],[1,0.5]];portConstraint=eastwest;" parent="FNnhUNr_KiXnueuTBLAe-23" vertex="1">
                    <mxGeometry y="26" width="210" height="26" as="geometry"/>
                </mxCell>
                <mxCell id="FNnhUNr_KiXnueuTBLAe-25" value="" style="endArrow=classic;html=1;exitX=1;exitY=0.5;exitDx=0;exitDy=0;" parent="lCS4FcYz-aoGhG3HwIAY-1" source="FNnhUNr_KiXnueuTBLAe-16" target="FNnhUNr_KiXnueuTBLAe-23" edge="1">
                    <mxGeometry width="50" height="50" relative="1" as="geometry">
                        <mxPoint x="550" y="90" as="sourcePoint"/>
                        <mxPoint x="600" y="40" as="targetPoint"/>
                    </mxGeometry>
                </mxCell>
                <mxCell id="FNnhUNr_KiXnueuTBLAe-27" value="" style="endArrow=block;endSize=16;endFill=0;html=1;entryX=0;entryY=0.5;entryDx=0;entryDy=0;exitX=1;exitY=0.5;exitDx=0;exitDy=0;" parent="lCS4FcYz-aoGhG3HwIAY-1" source="FNnhUNr_KiXnueuTBLAe-23" target="FNnhUNr_KiXnueuTBLAe-19" edge="1">
                    <mxGeometry x="-0.2923" y="5" width="160" relative="1" as="geometry">
                        <mxPoint x="840" y="190" as="sourcePoint"/>
                        <mxPoint x="1000" y="190" as="targetPoint"/>
                        <mxPoint as="offset"/>
                    </mxGeometry>
                </mxCell>
                <mxCell id="rJmXPRad6XpBiDdcHO_Y-4" style="edgeStyle=none;html=1;exitX=0.5;exitY=0;exitDx=0;exitDy=0;entryX=0.5;entryY=1;entryDx=0;entryDy=0;" edge="1" parent="lCS4FcYz-aoGhG3HwIAY-1" source="FNnhUNr_KiXnueuTBLAe-29" target="FNnhUNr_KiXnueuTBLAe-16">
                    <mxGeometry relative="1" as="geometry"/>
                </mxCell>
                <mxCell id="FNnhUNr_KiXnueuTBLAe-29" value="FieldDescriptor" style="swimlane;fontStyle=0;childLayout=stackLayout;horizontal=1;startSize=26;fillColor=none;horizontalStack=0;resizeParent=1;resizeParentMax=0;resizeLast=0;collapsible=1;marginBottom=0;" parent="lCS4FcYz-aoGhG3HwIAY-1" vertex="1">
                    <mxGeometry x="380" y="98" width="190" height="104" as="geometry"/>
                </mxCell>
                <mxCell id="FNnhUNr_KiXnueuTBLAe-30" value="+ name: std::string" style="text;strokeColor=none;fillColor=none;align=left;verticalAlign=top;spacingLeft=4;spacingRight=4;overflow=hidden;rotatable=0;points=[[0,0.5],[1,0.5]];portConstraint=eastwest;" parent="FNnhUNr_KiXnueuTBLAe-29" vertex="1">
                    <mxGeometry y="26" width="190" height="26" as="geometry"/>
                </mxCell>
                <mxCell id="FNnhUNr_KiXnueuTBLAe-31" value="+ dataType: DataTypeDescriptor" style="text;strokeColor=none;fillColor=none;align=left;verticalAlign=top;spacingLeft=4;spacingRight=4;overflow=hidden;rotatable=0;points=[[0,0.5],[1,0.5]];portConstraint=eastwest;" parent="FNnhUNr_KiXnueuTBLAe-29" vertex="1">
                    <mxGeometry y="52" width="190" height="26" as="geometry"/>
                </mxCell>
                <mxCell id="FNnhUNr_KiXnueuTBLAe-32" value="+ position: std::size_t" style="text;strokeColor=none;fillColor=none;align=left;verticalAlign=top;spacingLeft=4;spacingRight=4;overflow=hidden;rotatable=0;points=[[0,0.5],[1,0.5]];portConstraint=eastwest;" parent="FNnhUNr_KiXnueuTBLAe-29" vertex="1">
                    <mxGeometry y="78" width="190" height="26" as="geometry"/>
                </mxCell>
                <mxCell id="FNnhUNr_KiXnueuTBLAe-37" value="&lt;span style=&quot;font-weight: 700&quot;&gt;Site&amp;nbsp;&lt;/span&gt;= std::optional&amp;lt;T&amp;gt;&lt;span style=&quot;color: rgba(0 , 0 , 0 , 0) ; font-family: monospace ; font-size: 0px&quot;&gt;%3CmxGraphModel%3E%3Croot%3E%3CmxCell%20id%3D%220%22%2F%3E%3CmxCell%20id%3D%221%22%20parent%3D%220%22%2F%3E%3CmxCell%20id%3D%222%22%20value%3D%22%26lt%3Bspan%20style%3D%26quot%3Bfont-weight%3A%20700%26quot%3B%26gt%3BRowType%20%3D%26amp%3Bnbsp%3B%26lt%3B%2Fspan%26gt%3Bstd%3A%3Amap%26amp%3Blt%3Bstd%3A%3Astring%2C%20Site%26amp%3Bgt%3B%22%20style%3D%22html%3D1%3B%22%20vertex%3D%221%22%20parent%3D%221%22%3E%3CmxGeometry%20x%3D%2290%22%20y%3D%22190%22%20width%3D%22230%22%20height%3D%2232%22%20as%3D%22geometry%22%2F%3E%3C%2FmxCell%3E%3C%2Froot%3E%3C%2FmxGraphModel%3E&lt;/span&gt;&lt;span style=&quot;color: rgba(0 , 0 , 0 , 0) ; font-family: monospace ; font-size: 0px&quot;&gt;%3CmxGraphModel%3E%3Croot%3E%3CmxCell%20id%3D%220%22%2F%3E%3CmxCell%20id%3D%221%22%20parent%3D%220%22%2F%3E%3CmxCell%20id%3D%222%22%20value%3D%22%26lt%3Bspan%20style%3D%26quot%3Bfont-weight%3A%20700%26quot%3B%26gt%3BRowType%20%3D%26amp%3Bnbsp%3B%26lt%3B%2Fspan%26gt%3Bstd%3A%3Amap%26amp%3Blt%3Bstd%3A%3Astring%2C%20Site%26amp%3Bgt%3B%22%20style%3D%22html%3D1%3B%22%20vertex%3D%221%22%20parent%3D%221%22%3E%3CmxGeometry%20x%3D%2290%22%20y%3D%22190%22%20width%3D%22230%22%20height%3D%2232%22%20as%3D%22geometry%22%2F%3E%3C%2FmxCell%3E%3C%2Froot%3E%3C%2FmxGraphModel%3E&lt;/span&gt;" style="html=1;" parent="lCS4FcYz-aoGhG3HwIAY-1" vertex="1">
                    <mxGeometry x="495" y="270" width="140" height="30" as="geometry"/>
                </mxCell>
                <mxCell id="rJmXPRad6XpBiDdcHO_Y-13" style="edgeStyle=orthogonalEdgeStyle;curved=1;html=1;exitX=0.5;exitY=0;exitDx=0;exitDy=0;entryX=0.5;entryY=1;entryDx=0;entryDy=0;endArrow=classic;endFill=1;" edge="1" parent="lCS4FcYz-aoGhG3HwIAY-1" source="FNnhUNr_KiXnueuTBLAe-38" target="FNnhUNr_KiXnueuTBLAe-37">
                    <mxGeometry relative="1" as="geometry"/>
                </mxCell>
                <mxCell id="rJmXPRad6XpBiDdcHO_Y-14" style="edgeStyle=orthogonalEdgeStyle;curved=1;html=1;endArrow=classic;endFill=1;" edge="1" parent="lCS4FcYz-aoGhG3HwIAY-1" source="FNnhUNr_KiXnueuTBLAe-38" target="oEdN6mtQf5lMDYdg9PmO-0">
                    <mxGeometry relative="1" as="geometry"/>
                </mxCell>
                <mxCell id="FNnhUNr_KiXnueuTBLAe-38" value="&lt;span style=&quot;font-weight: 700&quot;&gt;BaseTable&amp;nbsp;&lt;/span&gt;= Site&amp;lt;Table&amp;gt;&lt;span style=&quot;color: rgba(0 , 0 , 0 , 0) ; font-family: monospace ; font-size: 0px&quot;&gt;%3CmxGraphModel%3E%3Croot%3E%3CmxCell%20id%3D%220%22%2F%3E%3CmxCell%20id%3D%221%22%20parent%3D%220%22%2F%3E%3CmxCell%20id%3D%222%22%20value%3D%22%26lt%3Bspan%20style%3D%26quot%3Bfont-weight%3A%20700%26quot%3B%26gt%3BRowType%20%3D%26amp%3Bnbsp%3B%26lt%3B%2Fspan%26gt%3Bstd%3A%3Amap%26amp%3Blt%3Bstd%3A%3Astring%2C%20Site%26amp%3Bgt%3B%22%20style%3D%22html%3D1%3B%22%20vertex%3D%221%22%20parent%3D%221%22%3E%3CmxGeometry%20x%3D%2290%22%20y%3D%22190%22%20width%3D%22230%22%20height%3D%2232%22%20as%3D%22geometry%22%2F%3E%3C%2FmxCell%3E%3C%2Froot%3E%3C%2FmxGraphModel%3E&lt;/span&gt;&lt;span style=&quot;color: rgba(0 , 0 , 0 , 0) ; font-family: monospace ; font-size: 0px&quot;&gt;%3CmxGraphModel%3E%3Croot%3E%3CmxCell%20id%3D%220%22%2F%3E%3CmxCell%20id%3D%221%22%20parent%3D%220%22%2F%3E%3CmxCell%20id%3D%222%22%20value%3D%22%26lt%3Bspan%20style%3D%26quot%3Bfont-weight%3A%20700%26quot%3B%26gt%3BRowType%20%3D%26amp%3Bnbsp%3B%26lt%3B%2Fspan%26gt%3Bstd%3A%3Amap%26amp%3Blt%3Bstd%3A%3Astring%2C%20Site%26amp%3Bgt%3B%22%20style%3D%22html%3D1%3B%22%20vertex%3D%221%22%20parent%3D%221%22%3E%3CmxGeometry%20x%3D%2290%22%20y%3D%22190%22%20width%3D%22230%22%20height%3D%2232%22%20as%3D%22geometry%22%2F%3E%3C%2FmxCell%3E%3C%2Froot%3E%3C%2FmxGraphModel%3E&lt;/span&gt;" style="html=1;" parent="lCS4FcYz-aoGhG3HwIAY-1" vertex="1">
                    <mxGeometry x="490" y="360" width="150" height="30" as="geometry"/>
                </mxCell>
            </root>
        </mxGraphModel>
    </diagram>
</mxfile>